<svg xmlns="http://www.w3.org/2000/svg" viewBox="0 0 1000 300"><defs><style>.a,.b{fill:#212121;}.b{fill-rule:evenodd;}</style></defs><title>amazonblack</title><path class="a" d="M351.66,110.87,313,98V42l38.72,11.47,0,57.59"/><path class="a" d="M361.78,53.51,400.49,42l-.13,55.88-38.58,13V53.8"/><path class="a" d="M392.86,35.91,356.7,24.73,321,35.91l35.74,9.57,36.1-9.57"/><path class="a" d="M449.23,110.87,410.56,98V42l38.72,11.47,0,57.59"/><path class="a" d="M459.35,53.51,498.06,42l-.13,55.88-38.58,13V53.8"/><path class="a" d="M490.55,35.91,454.4,24.73,418.71,35.91l35.74,9.57,36.1-9.57"/><path class="a" d="M205.4,135.37l-38.76-11.49v56l38.71,12.92.05-57.69"/><path class="a" d="M215.42,135.4l38.72-11.48L254,179.81l-38.58,12.95V135.11"/><path class="a" d="M246.32,117.79l-36.15-11.17-35.68,11.17,35.73,9.58,36.1-9.58"/><path class="a" d="M302.88,192.76l-38.67-12.91V123.92l38.71,11.48,0,57"/><path class="a" d="M313,135.4l38.72-11.48-.14,55.89L313,192.76V135.11"/><path class="a" d="M344,117.79l-36.15-11.17-35.68,11.17,35.73,9.58,36.1-9.58"/><path class="a" d="M254.09,274.65l-38.67-12.91V205.81l38.72,11.48,0,57.2"/><path class="a" d="M264.21,217.29l38.71-11.48-.13,55.89-38.58,12.95V217.19"/><path class="a" d="M295.16,199.68,259,188.51l-35.68,11.17,35.73,9.58,36.1-9.58"/><path class="a" d="M426.05,224.93h-3.16s-2.38,1-2.71,2.11l-8.64,30.47L403,227.11c-.25-1-2.37-1.4-2.37-1.4h-3.43a2.5,2.5,0,0,0-2.33,1.92L387,257.51l-8.17-30a3,3,0,0,0-2.74-1.83H372a2.58,2.58,0,0,0-2.11,1,1.39,1.39,0,0,0-.24,1.27l12.61,44.66a2.49,2.49,0,0,0,2.29,1.88h4.05a2.46,2.46,0,0,0,2.33-1.93l7.76-29.74,8.45,29.78a2.47,2.47,0,0,0,2.27,1.89h4.15a2.41,2.41,0,0,0,2.33-1.91l12.22-44.93a1.45,1.45,0,0,0-.23-1.32,2.6,2.6,0,0,0-2.1-1"/><path class="a" d="M461,244.29H439.46c.5-6,4.42-12.31,11.07-12.56C457.61,232,460.85,238.09,461,244.29Zm-10.49-19.11C436,225.18,429.33,238,429.33,250c0,14.92,8.25,24.56,21,24.56,9.13,0,16.08-4.61,19.09-12.67a1.71,1.71,0,0,0-.14-1.41,2.38,2.38,0,0,0-1.58-1.11l-4-.77a2.68,2.68,0,0,0-2.73,1.4c-2,4.48-5.54,7-10,7.15a11.65,11.65,0,0,1-10.11-6.53,21.55,21.55,0,0,1-1.72-9.36h29.25a2.45,2.45,0,0,0,1.7-.72,1.87,1.87,0,0,0,.58-1.32c-.08-11.62-5.39-24-20.08-24"/><path class="a" d="M506.72,249.75c0,2.76-.49,16.5-10.26,16.85a10.9,10.9,0,0,1-8.43-4.89,18.52,18.52,0,0,1-2.36-8.81v-8.08c.16-6.2,4.52-13,10.76-13.26,9.8.39,10.29,15.22,10.29,18.19Zm-8.66-25.59h-1.28c-4.65,0-8.3,2-11.11,6.06V211.46a2.21,2.21,0,0,0-2.22-2H479.4a2.22,2.22,0,0,0-2.24,2v59.32s.62,2.05,1.83,2.16h1.24a2.8,2.8,0,0,0,2.28-1.93l1.31-4.18c3.06,4.34,12.59,6.89,12.59,6.89h.76c13,0,18.79-12.63,18.79-25.14,0-6.23-1.54-12.18-4.22-16.34a16.77,16.77,0,0,0-13.89-7.8"/><path class="a" d="M562,248.69c-2.74-2-6-2.63-9.32-3.28l-6.32-1.17c-4.53-.75-7.16-2-7.16-6,0-4.23,4.39-5.85,8.1-5.95,4.54.11,7.95,2.14,9.61,5.7a2.44,2.44,0,0,0,2.17,1.4,1.8,1.8,0,0,0,.46-.05l3.94-.87a2.43,2.43,0,0,0,1.57-1.15,1.71,1.71,0,0,0,.16-1.4c-2.41-7-8.54-10.74-17.8-10.74-8.37,0-17.32,3.74-17.32,14.14,0,7.1,4.47,11.61,13.28,13.41l7.07,1.35c3.88.74,7.85,2.06,7.85,6.23,0,6.17-7.18,6.8-9.35,6.84-4.87-.1-10.38-2.27-11.72-6.87a2.35,2.35,0,0,0-2.66-1.5l-4.12.85a2.4,2.4,0,0,0-1.52,1.08,1.8,1.8,0,0,0-.23,1.43c2.13,7.63,9.5,12.24,19.71,12.31h.23c9.12,0,18.87-3.9,18.87-14.86a13.23,13.23,0,0,0-5.5-10.94"/><path class="a" d="M603.72,244.29H582.17c.49-6,4.42-12.32,11.07-12.55C600.31,232,603.55,238.09,603.72,244.29Zm-10.49-19.11C578.67,225.18,572,238.05,572,250c0,14.92,8.24,24.56,21,24.56,9.13,0,16.09-4.61,19.1-12.67a1.68,1.68,0,0,0-.15-1.41,2.33,2.33,0,0,0-1.57-1.11l-4-.77a2.67,2.67,0,0,0-2.74,1.41c-2,4.47-5.54,7-10,7.15a11.62,11.62,0,0,1-10.1-6.54,21.21,21.21,0,0,1-1.72-9.36H611a2.41,2.41,0,0,0,1.69-.72,1.83,1.83,0,0,0,.58-1.31c-.07-11.62-5.38-24-20.07-24"/><path class="a" d="M640.7,225.45a13.51,13.51,0,0,0-1.65-.1c-4.91,0-8.9,2.67-11.67,7.77V228.5a2.29,2.29,0,0,0-2.39-2h-3.79a2.27,2.27,0,0,0-2.34,2v43.16a2.27,2.27,0,0,0,2.35,2h4.58a2.33,2.33,0,0,0,2.37-2.05V249.81c0-3.61.34-6.33,2.06-9.54,2.45-4.58,5.88-6.83,10.48-6.86a2.23,2.23,0,0,0,2.17-2.16v-3.68a2.26,2.26,0,0,0-2.09-2.12"/><path class="a" d="M685.46,224.16h-3.15s-2.41,1.19-2.74,2.31l-10.91,34.29L657.52,226.5c-.33-1.14-2.75-1.57-2.75-1.57H650a2.72,2.72,0,0,0-2.18,1,1.44,1.44,0,0,0-.23,1.3l15.28,45.32a2.58,2.58,0,0,0,2.3,1.94h5.8a2.51,2.51,0,0,0,2.35-1.94l14.79-45.22a1.41,1.41,0,0,0-.22-1.3,2.71,2.71,0,0,0-2.18-1"/><path class="a" d="M696.73,207.21a5.64,5.64,0,1,0,5.63,5.64,5.64,5.64,0,0,0-5.63-5.64"/><path class="a" d="M699.4,224.16h-4.57a2.37,2.37,0,0,0-2.4,2.13V272.5s-.14,1.11.36,1.52a1.94,1.94,0,0,0,1.62.47l4.65.78h0a10,10,0,0,0,2.65-2.76V226.45a2.34,2.34,0,0,0-2.41-2.13"/><path class="a" d="M742,255.91h-3.4a2.54,2.54,0,0,0-2.43,1.81c-1.45,6.22-4.71,9.45-9.66,9.59-9.65-.29-10.4-13.73-10.4-17.84,0-8.2,2.85-17,10.78-17.29,4.78.15,8.26,3.58,9.31,9.17a2.58,2.58,0,0,0,2.27,2.16l4,0a2.35,2.35,0,0,0,2.21-2.24c-1.48-10-8.37-16.4-17.59-16.4h-.68C713,224.92,707,237.44,707,249.84c0,11.37,5.06,24.65,19.34,24.65H727c8.92,0,15.64-6.25,17.57-16.38a1.82,1.82,0,0,0-.46-1.35,2.71,2.71,0,0,0-1.93-.87"/><path class="a" d="M780.25,244.29H758.7c.49-6,4.42-12.32,11.07-12.55C776.85,232,780.09,238.09,780.25,244.29Zm-10.49-19.11c-14.56,0-21.19,12.87-21.19,24.82,0,14.92,8.25,24.56,21,24.56,9.12,0,16.08-4.61,19.09-12.67a1.68,1.68,0,0,0-.15-1.41,2.37,2.37,0,0,0-1.57-1.11l-4-.77a2.66,2.66,0,0,0-2.73,1.41c-2,4.47-5.55,7-10,7.15a11.62,11.62,0,0,1-10.1-6.54,21.26,21.26,0,0,1-1.72-9.36h29.25a2.44,2.44,0,0,0,1.7-.73,1.85,1.85,0,0,0,.56-1.31c-.06-11.62-5.37-24-20.07-24"/><path class="a" d="M826.48,248.69c-2.74-2-6-2.63-9.32-3.28l-6.32-1.17c-4.53-.75-7.15-2-7.15-6,0-5.46,6.77-5.91,8.09-5.95,4.54.11,8,2.14,9.61,5.7a2.45,2.45,0,0,0,2.17,1.4,1.83,1.83,0,0,0,.47-.05l3.84-.85a2.42,2.42,0,0,0,1.07-.48,1.91,1.91,0,0,0,.75-2.09c-2.41-7-8.53-10.74-17.8-10.74-8.37,0-17.31,3.74-17.31,14.14,0,7.1,4.46,11.62,13.27,13.41l7.08,1.35c3.88.74,7.85,2.06,7.85,6.23,0,6.17-7.18,6.8-9.35,6.84-4.52-.09-10.3-2-11.72-6.87a2.35,2.35,0,0,0-2.67-1.5l-4.12.85a2.42,2.42,0,0,0-1.52,1.09,1.77,1.77,0,0,0-.23,1.42c2.13,7.63,9.49,12.24,19.71,12.31h.23c9.12,0,18.87-3.9,18.87-14.86a13.23,13.23,0,0,0-5.5-10.94"/><path class="b" d="M639,135.88V125.37a2.59,2.59,0,0,1,2.65-2.65h46.69s2.7.91,2.54,2.45v9c.15,1.5-1.12,3.47-3.37,6.59l-24.27,34.65c9-.22,18.54,1.13,26.73,5.73,1.84,1,2.46,4.08,2.46,4.08v11.09c0,1.53-1.69,3.31-3.46,2.39a54.42,54.42,0,0,0-49.72.08c-1.63.87-3.35-.88-3.35-2.42v-10.6a12.67,12.67,0,0,1,1.75-7.19l28.24-40.34H641.54a2.61,2.61,0,0,1-2.71-2.63"/><path class="b" d="M467.86,200.93H453.37a2.69,2.69,0,0,1-2.54-2.42V125.35a2.68,2.68,0,0,1,2.74-2.63h13.24a2.7,2.7,0,0,1,2.59,2.46v9.94h.27c3.46-9.19,10-13.47,18.79-13.47S503,125.92,507,135.11c3.46-9.19,11.33-13.47,19.73-13.47,6,0,12.52,2.44,16.52,8,4.53,6.13,3.6,15,3.6,22.81v45.91a2.68,2.68,0,0,1-2.75,2.62h-14a2.67,2.67,0,0,1-2.56-2.63V159.51c0-3.08.26-10.78-.4-13.7-1.06-4.93-4.25-6.31-8.36-6.31a9.44,9.44,0,0,0-8.5,6c-1.46,3.71-1.32,9.86-1.32,14v38.78a2.69,2.69,0,0,1-2.75,2.64H492.1a2.67,2.67,0,0,1-2.55-2.63l0-38.79c0-8.16,1.33-20.17-8.75-20.17S471,151,471,159.51v38.8a2.67,2.67,0,0,1-2.75,2.63"/><path class="b" d="M731.51,136.12c-10.51,0-11.18,14.32-11.18,23.25s-.13,28,11,28S743,172,743,162.6c0-6.15-.26-13.54-2.13-19.39C739.23,138.12,736,136.12,731.51,136.12Zm-.13-14.93c21.16,0,32.61,18.17,32.61,41.25,0,22.33-12.65,40-32.61,40-20.76,0-32.07-18.17-32.07-40.8,0-22.79,11.44-40.49,32.07-40.49"/><path class="b" d="M791.55,200.93H777.09a2.69,2.69,0,0,1-2.58-2.63l0-73.2a2.71,2.71,0,0,1,2.75-2.38h13.31a2.74,2.74,0,0,1,2.55,2.05v11.12h.27c4-10,9.63-14.79,19.53-14.79,6.42,0,12.71,2.3,16.72,8.63,3.74,5.85,3.74,15.71,3.74,22.8v46.1a2.71,2.71,0,0,1-2.73,2.31H815.76a2.7,2.7,0,0,1-2.53-2.31V158.89c0-8,.93-19.71-8.89-19.71a9.31,9.31,0,0,0-8.21,5.85c-2,4.47-2.26,8.93-2.26,13.86v39.42a2.72,2.72,0,0,1-2.77,2.63"/><path class="b" d="M615.52,201a3,3,0,0,1-3.39.33c-4.76-4-5.62-5.79-8.22-9.56-7.88,8-13.46,10.43-23.66,10.43-12.08,0-21.48-7.46-21.48-22.37,0-11.64,6.31-19.57,15.3-23.45,7.79-3.42,18.66-4,27-5v-1.86c0-3.41.27-7.45-1.74-10.4-1.74-2.64-5.1-3.73-8.06-3.73-5.47,0-10.33,2.81-11.53,8.62a3,3,0,0,1-2.49,2.64l-13.91-1.51a2.51,2.51,0,0,1-2.14-3c3.2-16.88,18.43-22,32.09-22,7,0,16.11,1.86,21.61,7.14,7,6.53,6.31,15.22,6.31,24.7v22.36c0,6.72,2.79,9.67,5.42,13.3.91,1.3,1.12,2.85-.05,3.81-2.93,2.46-8.14,7-11,9.53l0,0Zm-13.69-35c0,5.55.13,10.19-2.67,15.12-2.27,4-5.87,6.48-9.87,6.48-5.46,0-8.66-4.16-8.66-10.34,0-12.14,10.89-14.35,21.2-14.35v3.17"/><path class="b" d="M428.9,201a3,3,0,0,1-3.39.33c-4.77-4-5.62-5.79-8.23-9.56-7.87,8-13.45,10.43-23.66,10.43-12.08,0-21.48-7.46-21.48-22.37,0-11.64,6.32-19.57,15.31-23.45,7.79-3.42,18.66-4,27-5v-1.86c0-3.41.27-7.45-1.74-10.4-1.75-2.64-5.11-3.73-8.06-3.73-5.47,0-10.34,2.81-11.53,8.62a3,3,0,0,1-2.49,2.64l-13.91-1.51a2.52,2.52,0,0,1-2.15-3c3.2-16.88,18.44-22,32.09-22,7,0,16.11,1.86,21.62,7.14,7,6.53,6.31,15.22,6.31,24.7v22.36c0,6.72,2.79,9.67,5.41,13.3.92,1.3,1.12,2.85,0,3.81-2.93,2.46-8.14,7-11,9.53l0,0Zm-14.47-35c0,5.55.13,10.19-2.66,15.12-2.27,4-5.87,6.48-9.87,6.48-5.47,0-8.67-4.16-8.67-10.34,0-12.14,10.89-14.35,21.2-14.35v3.17"/></svg>