<?xml version="1.0" encoding="utf-8"?>
<!-- Generator: Adobe Illustrator 24.1.3, SVG Export Plug-In . SVG Version: 6.00 Build 0)  -->
<svg version="1.1" id="OL" xmlns="http://www.w3.org/2000/svg" xmlns:xlink="http://www.w3.org/1999/xlink" x="0px" y="0px"
	 viewBox="0 0 280.7 51" style="enable-background:new 0 0 280.7 51;" xml:space="preserve">
<g id="XMLID_1_">
	<g id="XMLID_12_">
		<polygon id="XMLID_13_" points="13.7,20.3 13.7,9.8 47.5,9.8 47.5,0 0,0 0,51 47.7,51 47.7,41.2 13.7,41.2 13.7,29.5 45.7,29.5 
			45.7,20.3 		"/>
	</g>
	<g id="XMLID_10_">
		<rect id="XMLID_11_" x="110.8" width="13.8" height="51"/>
	</g>
	<g id="XMLID_8_">
		<polygon id="XMLID_9_" points="174.5,0 174.5,9.8 208.1,9.8 208.1,20.3 176.4,20.3 176.4,29.5 208.1,29.5 208.1,41.2 174.2,41.2 
			174.2,51 222.1,51 222.1,0 		"/>
	</g>
	<g id="XMLID_6_">
		<polygon id="XMLID_7_" points="260.5,0 245.4,35.4 230.9,0 226.7,0 226.7,18.5 239.4,51 251,51 267.1,12.2 267.2,12.2 267.2,51 
			280.7,51 280.7,0 		"/>
	</g>
	<g id="XMLID_4_">
		<polygon id="XMLID_5_" points="52.4,0 52.4,51 65.8,51 65.8,12.2 66,12.2 82.1,51 93.7,51 106.4,18.5 106.4,0 102.2,0 87.7,35.4 
			72.6,0 		"/>
	</g>
	<g id="XMLID_2_">
		<polygon id="XMLID_3_" points="156.5,0 156.5,34.1 156.3,34.1 130.9,0 129.3,0 129.3,17.6 154.4,51 169.8,51 169.8,0 		"/>
	</g>
</g>
</svg>
