<?xml version="1.0" encoding="utf-8"?>
<!-- Generator: Adobe Illustrator 24.1.0, SVG Export Plug-In . SVG Version: 6.00 Build 0)  -->
<svg version="1.1" id="Layer_1" xmlns="http://www.w3.org/2000/svg" xmlns:xlink="http://www.w3.org/1999/xlink" x="0px" y="0px"
	 viewBox="0 0 1000 300" style="enable-background:new 0 0 1000 300;" xml:space="preserve">
<style type="text/css">
	.st0{fill:#212121;}
</style>
<g id="layer1" transform="translate(-29.048715,-393.1929)">
	<g id="XMLID_54_" transform="matrix(0.84037876,0,0,0.84037876,29.120071,393.34829)">
		<g id="XMLID_55_">
			<path id="XMLID_69_" class="st0" d="M347.8,136.3c-6.1-6.2-12.7-11-19.7-14.3c-7-3.3-15.9-4.9-26-4.9c-8.2,0-16,1.5-23.3,4.4
				c-7.3,2.9-13.6,7-19,12.3c-5.5,5.3-9.9,11.8-13.1,19.3c-3.2,7.5-4.8,15.9-4.8,25.1c0,9.2,1.6,17.6,4.8,25.1
				c3.2,7.5,7.5,13.9,13.1,19.2c5.5,5.3,12,9.5,19.3,12.4c7.3,2.9,15.2,4.4,23.5,4.4c8.9,0,16.6-1.2,23.3-3.7
				c6.6-2.5,12.3-5.9,17-10.2c3.2-2.9,6.1-6.5,8.6-10.7c2.5-4.4,4.5-9.1,5.9-14.4h-55.9v-31.7h91.2c0.5,2.1,0.9,4.6,1.3,7.8
				s0.5,6.1,0.5,9.1c0,12.6-1.8,23.9-5.5,34.3c-3.7,10.4-9.4,19.6-16.8,27.6c-8.3,8.9-18.2,15.6-29.9,20.5
				c-11.6,4.9-25,7.3-39.9,7.3c-13.5,0-26.2-2.4-38-7.3c-11.9-4.9-22.3-11.6-31.3-20.2c-8.9-8.6-15.9-18.8-21.1-30.5
				c-5.3-11.8-7.8-24.8-7.8-38.8c0-14,2.6-26.9,7.8-38.8c5.2-11.9,12.2-22.1,21.1-30.6c8.9-8.6,19.3-15.2,31.3-20.1
				c12-4.9,24.7-7.3,38-7.3c15.3,0,28.9,2.6,40.7,7.9c11.8,5.3,21.9,12.6,30.5,21.8L347.8,136.3z"/>
			<g id="XMLID_56_">
				<path id="XMLID_67_" class="st0" d="M582.1,221.4c0,16.2-5.9,29.3-17.8,39.2c-12,9.6-26.7,14.5-44,14.5
					c-15.3,0-28.9-4.5-40.7-13.5c-11.8-9-19.8-21.3-24.3-36.7l22.7-9.4c1.6,5.5,3.7,10.6,6.5,15.1c2.8,4.5,5.9,8.3,9.6,11.5
					c3.7,3.2,7.8,5.7,12.3,7.5s9.2,2.8,14.3,2.8c10.8,0,19.8-2.8,26.7-8.5c6.9-5.5,10.3-13.1,10.3-22.3c0-7.8-2.9-14.4-8.6-19.9
					c-5.3-5.3-15.3-10.6-30-15.6c-14.8-5.3-24-9-27.7-10.8c-19.7-10-29.5-24.7-29.5-44.3c0-13.6,5.4-25.2,16.2-34.9
					c11.1-9.6,24.6-14.5,40.7-14.5c14.1,0,26.4,3.6,36.7,10.8c10.3,7.1,17.3,16,20.7,26.7l-22.1,9.1c-2.1-6.9-6.2-12.7-12.3-17.2
					c-6.1-4.6-13.6-6.9-22.3-6.9c-9.4,0-17.2,2.6-23.5,7.8c-6.3,4.8-9.5,11.1-9.5,18.8c0,6.3,2.5,11.9,7.5,16.5
					c5.5,4.6,17.6,10.2,35.9,16.5c18.8,6.3,32.2,14.3,40.3,23.5C578.1,196.5,582.1,207.9,582.1,221.4z"/>
				<path id="XMLID_65_" class="st0" d="M714,270.9h-22.7v-17.6h-1.1c-3.6,6.2-9.2,11.4-16.6,15.6c-7.5,4.1-15.3,6.2-23.4,6.2
					c-15.6,0-27.5-4.5-35.8-13.3c-8.3-8.9-12.6-21.5-12.6-37.9v-79.8h23.8v78.2c0.5,20.7,11,31,31.3,31c9.5,0,17.4-3.8,23.8-11.5
					c6.3-7.7,9.5-16.9,9.5-27.6v-70.1H714V270.9z"/>
				<path id="XMLID_62_" class="st0" d="M768.3,100.4c0,4.6-1.6,8.6-4.9,11.9c-3.3,3.3-7.3,4.9-11.9,4.9c-4.6,0-8.6-1.6-11.9-4.9
					c-3.3-3.3-4.9-7.3-4.9-11.9c0-4.6,1.6-8.6,4.9-11.9c3.3-3.3,7.3-4.9,11.9-4.9c4.6,0,8.6,1.6,11.9,4.9
					C766.8,91.8,768.3,95.7,768.3,100.4z M763.5,144.1v126.8h-23.8V144.1H763.5z"/>
				<path id="XMLID_60_" class="st0" d="M836.5,273c-10.3,0-18.9-3.2-25.8-9.5c-6.9-6.3-10.3-15.3-10.4-26.7v-70.9H778v-21.8h22.2
					v-38.8H824v38.8h31v21.8h-31V229c0,8.5,1.6,14.1,4.9,17.2c3.3,3,7,4.5,11.1,4.5c1.8,0,3.7-0.3,5.5-0.7s3.4-1.1,5-1.7l7.5,21.3
					C852.1,271.8,844.8,273,836.5,273L836.5,273z"/>
				<path id="XMLID_57_" class="st0" d="M925.6,275c-18.6,0-34-6.3-46.1-19.2c-12-12.8-18.1-28.9-18.1-48.4
					c0-19.3,5.8-35.4,17.6-48.2s26.7-19.3,45-19.3c18.8,0,33.8,6.1,44.9,18.2c11.1,12.2,16.6,29.2,16.6,51.1l-0.3,2.6h-99.6
					c0.4,12.4,4.5,22.5,12.4,30c7.9,7.5,17.4,11.4,28.5,11.4c15.2,0,27.1-7.5,35.7-22.7l21.3,10.3c-5.7,10.7-13.6,19-23.6,25.1
					C949.7,272,938.2,275,925.6,275L925.6,275z M887.5,192.2h72.8c-0.7-8.9-4.2-16.1-10.7-21.9c-6.5-5.8-15.2-8.7-26-8.7
					c-9,0-16.6,2.8-23.1,8.3C893.8,175.5,889.6,182.9,887.5,192.2z"/>
			</g>
		</g>
	</g>
</g>
</svg>
