<?xml version="1.0" encoding="utf-8"?>
<!-- Generator: Adobe Illustrator 24.1.0, SVG Export Plug-In . SVG Version: 6.00 Build 0)  -->
<svg version="1.1" id="Layer_1" xmlns="http://www.w3.org/2000/svg" xmlns:xlink="http://www.w3.org/1999/xlink" x="0px" y="0px"
	 viewBox="0 0 1000 300" style="enable-background:new 0 0 1000 300;" xml:space="preserve">
<style type="text/css">
	.st0{fill-rule:evenodd;clip-rule:evenodd;fill:#212121;}
	.st1{fill-rule:evenodd;clip-rule:evenodd;fill:#FFFEFD;}
</style>
<g>
	<g>
		<path class="st0" d="M244.7,72.7c0,15.1-5.5,28.8-14.6,39.5l13.1,176.3H125.9l12.7-173.2c-10.8-11-17.5-26-17.5-42.6
			c0-33.8,27.6-61.2,61.8-61.2C217,11.5,244.7,38.9,244.7,72.7z"/>
		<g>
			<ellipse class="st1" cx="182.9" cy="71.8" rx="14.9" ry="14.9"/>
			<path class="st1" d="M194.7,139.8V240h-20.3v-79.8L194.7,139.8z"/>
		</g>
	</g>
	<g transform="translate(23.277617 9.694915)">
		<g transform="translate(5.028724)">
			<path class="st0" d="M393.5,193.8c-7.9,8.6-15.7,13.9-19.9,16.1c-4.2,2.2-8.6,3.3-13.2,3.3c-5.2,0-9.7-1.5-13.5-4.5
				c-3.8-3-6.4-6.8-7.9-11.5c-1.5-4.7-2.2-11.3-2.2-19.9v-33.7c0-0.1,0-0.1,0-0.2v-5c0-1,0-5.2-2.7-6.5c-0.4-0.2-1.1-0.4-2.2-0.5v0
				c-0.8-0.1-1.4-0.8-1.4-1.5l0-4.5c0-0.9,0.7-1.6,1.6-1.6l0,0h17c2.4,0,4.4,2,4.4,4.4v23.1l0,0V180c0,8.6,1.5,14.2,4.5,16.9
				c3,2.7,6.6,4,10.8,4c2.9,0,6.2-0.9,9.8-2.7c3.7-1.8,9.7-5.3,14.8-10.3l0-4.3l0,0l0.1-41v-4c0-1,0-5.2-2.6-6.5
				c-0.4-0.2-1.1-0.4-2.1-0.5c-0.8-0.1-1.4-0.8-1.4-1.5l0-4.5c0-0.9,0.7-1.6,1.6-1.6l0,0h16.8c2.4,0,4.4,2,4.4,4.4v14.9
				c0,0.1,0,0.2,0,0.3v30.7c0,7.1,0,13.6,0,19.6h0c0,1.4,0,2.1,0,2.3c0,1-0.1,5.6,2.5,7c0.4,0.2,1.1,0.4,2.1,0.5
				c0.8,0.1,1.4,0.8,1.4,1.5l0,4.5c0,0.9-0.7,1.6-1.6,1.6l0,0h-16.8c-2.4,0-4.4-2-4.4-4.4l0,0l0-8.4h0L393.5,193.8z"/>
			<path class="st0" d="M427.3,109.6L427.3,109.6l0-11.5c0-0.9,0-5-2.6-6.3c-0.3-0.1-0.6-0.3-1-0.4v0c-0.7-0.2-1.2-0.8-1.2-1.5
				l0-4.3c0-0.9,0.7-1.6,1.6-1.6l0,0h3.2h11.9c2.4,0,4.3,1.9,4.3,4.3v0l0,22.2V139c8.6-11.9,18-17.8,28-17.8c9.2,0,17.2,3.9,24,11.6
				c6.8,7.7,10.2,18.3,10.2,31.7c0,15.7-5.3,28.3-15.8,37.8c-9,8.2-19.1,12.3-30.2,12.3c-5.2,0-10.5-0.9-15.8-2.8
				c-4.6-1.6-9.3-3.9-14-6.8c-1.5-0.9-2.4-2.6-2.4-4.4v-85C427.4,114.1,427.3,112.1,427.3,109.6z M444.9,199.3
				c2.8,2.5,5.8,4.5,8.8,5.9c3.5,1.6,7.2,2.5,10.9,2.5c5.9,0,11.4-3.2,16.5-9.6c5.1-6.4,7.7-15.8,7.7-28c0-11.3-2.6-20-7.7-26
				c-5.1-6.1-10.9-9.1-17.4-9.1c-3.4,0-6.9,0.9-10.3,2.6c-2.3,1.1-5.1,3.2-8.5,6.3c-0.9,0.8-1.4,2-1.4,3.3v48.9
				C443.4,197.2,444,198.4,444.9,199.3z"/>
			<path class="st0" d="M620.3,184.3v-38.4c7.7-8.2,18.7-12.3,26.4-12.3c5,0,8.5,1.8,10.6,5.4c2.1,3.6,3.2,9.3,3.2,17.2v28.2l0,0
				v22.4c0,2.4,1.9,4.3,4.3,4.3h11.8c1,0,2.2,0,3.7,0c0.9,0,1.5-0.7,1.5-1.6h0l0-4.3c0-0.8-0.6-1.4-1.3-1.5v0
				c-0.6-0.1-1-0.2-1.4-0.4c-2.5-1.3-2.5-5.4-2.5-6.3v-11.7l0,0v-30.5c0-7.8-0.7-13.6-2.1-17.4c-2.1-5.4-4.9-9.3-8.4-11.7
				c-3.5-2.4-7.7-3.6-12.5-3.6c-8.9,0-21.6,5.4-31.3,16.2c0,0-0.1,0.1-0.1,0.1l0,0c-0.2,0.2-0.5,0.3-0.8,0.3c-0.6,0-1-0.5-1-1v-3.4
				c0,0,0,0,0,0V128c0-2.3-1.9-4.2-4.2-4.2h-14.8l0,0c-0.9,0-1.6,0.7-1.6,1.6l0,4.3c0,0.7,0.5,1.3,1.2,1.5v0c0.4,0.1,0.7,0.2,1,0.4
				c2.5,1.3,2.5,5.3,2.5,6.3v0.2c0,0.9,0,1.8,0,2.8v8.5l0,0c0,3.2-0.1,6.7-0.1,10.2v32.2c0,0,0,0,0,0.1v5c0,0.9,0,5.1-2.5,6.3
				c-0.4,0.2-1,0.3-1.9,0.4v0c-0.8,0.1-1.4,0.8-1.4,1.5l0,4.3c0,0.9,0.7,1.6,1.6,1.6l0,0h16.1c2.3,0,4.2-1.9,4.2-4.2L620.3,184.3
				L620.3,184.3z"/>
			<path class="st0" d="M845.5,189.6v5.8c0,0.2,0,0.3,0,0.4c0,0.3,0,0.6,0,0.8c0.2,2.7,1,4.4,2.5,5.1c0.3,0.2,0.7,0.3,1.2,0.4v0
				c0.7,0.2,1.2,0.8,1.2,1.5l0,4.4c0,0.9-0.7,1.6-1.6,1.6l0,0h-15.2c-2.3,0-4.2-1.9-4.2-4.2V197c-9.2,7.1-14.9,11.2-17.3,12.4
				c-3.5,1.6-7.3,2.5-11.2,2.5c-6.2,0-11.3-2.1-15.3-6.4c-4-4.2-6-9.8-6-16.8c0-4.4,1-8.2,2.9-11.4c2.7-4.4,6.7-9.5,13.9-12.5
				c7.2-3,13.4-3.7,32.9-8.2c0-0.6,0-7.3,0-7.9c-0.1-8.4-1.4-16.9-15.3-16.1c-9.7,0.6-18.7,3.7-26.8,9.2v0c-0.7,0.5-1.7,0.3-2.2-0.4
				c-0.2-0.3-0.3-0.6-0.3-0.9v-5.1c0-2.7,0.5-4.5,1.6-5.3c5.7-4.6,19.9-10.2,33.8-9.2c15.3,1,20.9,7.4,23.6,17.2
				c0.8,3,1.8,5.2,1.8,13.9v26.8C845.6,182.6,845.6,186.2,845.5,189.6z M829.5,163.4c-12.1,2.5-19,4-20.8,4.6
				c-6.7,2.3-12.1,4.8-12.5,16.1c-0.2,4.7,1.4,8.6,4.2,11.7c2.8,3.1,6,4.7,9.7,4.7c4.5,0,10.3-3.4,17.5-8.9c1.3-1,2-2.5,2-4.1V163.4
				z"/>
			<path class="st0" d="M765.4,196.4L765.4,196.4c0,1,0,4.9,2.5,6.2c0.3,0.1,0.6,0.3,1,0.3c0.7,0.2,1.2,0.8,1.2,1.5l0,4.2
				c0,0.9-0.7,1.6-1.6,1.6l0,0h-14.5c-2.3,0-4.1-1.8-4.1-4.1v-4l0,0c-4.2,4.5-8.4,7.7-12.4,9.7c-4,2-8.4,2.9-13.1,2.9
				c-9.5,0-17.7-4-24.8-12.1c-7.1-8.1-10.6-18.5-10.6-31.1s3.9-24.3,11.7-34.8c7.8-10.5,17.9-15.8,30.2-15.8
				c7.6,0,13.9,2.5,18.9,7.4V97.3c0-0.9,0-5-2.5-6.3c-0.3-0.1-0.5-0.2-0.9-0.3c-0.7-0.2-1.1-0.8-1.1-1.5l0-4.4
				c0-0.9,0.7-1.6,1.6-1.6l0,0h14.4c2.3,0,4.1,1.9,4.1,4.1v108.8L765.4,196.4z M738.9,134.6c-3.1-1.8-6.2-2.8-9.1-2.8
				c-5.6,0-10.6,2.4-15.1,7c-5,5.1-8.3,12-8.3,24.9c0,13,2.8,23,8.3,29.9c5.5,6.9,11.7,10.4,18.5,10.4c4.9,0,9.6-2.1,14.2-6.3
				c1.6-1.4,2.5-3.5,2.5-5.6v-38.4C749.8,145.8,745.6,138.5,738.9,134.6z"/>
			<path class="st0" d="M523.6,203c-7.1-8-10.7-20.8-10.7-33.6c0-13.4,4.2-25.7,11.7-34.6c7.9-9.2,18.7-14.1,31.2-14.1
				c10.6,0,18.7,3.6,24,10.8c5,6.7,7.5,16.2,7.5,28.4c0,1.5-0.1,3.5-0.3,6.1l0,0c-0.1,1.6-1.5,2.9-3.1,2.9h-54.3
				c-0.2,0-0.5,0.1-0.6,0.3c-0.2,0.2-0.3,0.4-0.3,0.6c0.2,10,3.4,18.4,9.2,24.4c5.7,5.9,13.6,9,22.7,9c6.8,0,15.7-1.8,22.6-3.9
				c1-0.3,2,0.3,2.3,1.2c0.1,0.3,0.1,0.7,0,1l-0.9,3.6c-0.3,1.3-1.2,2.4-2.4,3c-6.8,3.3-17,6.5-27.4,6.5
				C542,214.6,531.1,211.5,523.6,203z M528.1,157.4c0,0.2,0.1,0.5,0.2,0.6c0.2,0.2,0.4,0.3,0.7,0.3h43.6c0.5,0,0.9-0.3,0.9-0.8
				c0.5-4.6,0.7-12.9-6.1-19.9c-3.4-3.5-7.4-5.2-15.2-5.2C538.7,132.4,529.6,145.8,528.1,157.4z"/>
			<path class="st0" d="M660.6,184.8v11.8c0,1,0,5.1-2.5,6.4c-0.1,0-0.2,0.1-0.3,0.1l0,0c-1.8,0.6-2.9,2.3-3,4.1
				c0,2,1.6,3.7,3.6,3.7c0,0,0,0,0,0c0.7,0,1.4,0,2.1,0c2.8,0,6.7,0,11.8,0c2.3,0,4.2-1.9,4.2-4.2c0,0,0,0,0,0V184L660.6,184.8z"/>
			<path class="st0" d="M620.3,184.8v11.8c0,1,0,5.1,2.5,6.4c0.1,0,0.2,0.1,0.3,0.1l0,0c1.8,0.6,2.9,2.3,3,4.1c0,2-1.6,3.7-3.6,3.7
				c0,0,0,0,0,0c-0.7,0-1.4,0-2.1,0c-2.8,0-6.7,0-11.8,0c-2.3,0-4.2-1.9-4.2-4.2V184L620.3,184.8z"/>
		</g>
		<path class="st0" d="M316.2,130.9v68.2c0,1.8,1,3.4,2.6,4.2c1.6,0.8,2.6,2.4,2.6,4.2v1.3c0,1.5-1.2,2.6-2.6,2.6h-22.9
			c-1.4,0-2.6-1.2-2.6-2.6v-1.3c0-1.8,1-3.4,2.6-4.2s2.6-2.4,2.6-4.2v-65.9c0-0.9-0.8-1.7-1.7-1.7c-0.9,0-1.7-0.8-1.7-1.7v-2.2
			c0-2.1,1.7-3.9,3.9-3.9h10.1C313,123.9,316.2,127,316.2,130.9z"/>
		<ellipse class="st0" cx="307.4" cy="95.7" rx="10.9" ry="11"/>
	</g>
</g>
</svg>
