<?xml version="1.0" encoding="utf-8"?>
<!-- Generator: Adobe Illustrator 24.1.0, SVG Export Plug-In . SVG Version: 6.00 Build 0)  -->
<svg version="1.1" id="Layer_1" xmlns="http://www.w3.org/2000/svg" xmlns:xlink="http://www.w3.org/1999/xlink" x="0px" y="0px"
	 viewBox="0 0 1000 300" style="enable-background:new 0 0 1000 300;" xml:space="preserve">
<style type="text/css">
	.st0{fill:#212121;}
</style>
<g>
	<g>
		<path class="st0" d="M250.4,143.8c1.5,0,3,0,4.4,0c0.9-2,0.9-5,0-8.3c-0.9-5-2.4-8.3-5.4-7.9c-3,0.5-3,4.4-2,9.4
			C247.8,139.9,248.9,142.3,250.4,143.8L250.4,143.8z"/>
		<g>
			<path class="st0" d="M224.3,148.2c2,0.9,3.5,1.5,3.9,0.9c0.5-0.5,0-0.9-0.5-2c-0.9-2-3.5-3.5-5.4-4.4c-5-2-10.4-1.5-14.8,2
				c-1.5,0.9-3,2.4-2.4,3.5c0,0.5,0.5,0.5,0.9,0.5c0.9,0,5.4-2,10.4-2.4C219.3,146.2,222.3,147.3,224.3,148.2L224.3,148.2z"/>
			<path class="st0" d="M219.9,150.6c-3,0.5-4.4,1.5-5.4,2.4c-0.9,0.9-1.5,1.5-1.5,2v0.5h0.5c0.5,0,2-0.5,2-0.5
				c3.9-1.5,6.5-1.5,8.9-0.9c1.5,0,2,0.5,2.4,0c0,0,0-0.5,0-0.9C226.7,151.7,223.8,150.2,219.9,150.6L219.9,150.6z"/>
		</g>
		<g>
			<path class="st0" d="M221.3,154.1c0.9-2,0.9-6.5,0-9.8c-0.9-5-2.4-7.9-5.9-7.9c-3,0.5-3,4.4-2,9.8c0.5,3.5,2,5.4,2.4,6.9
				C218.4,157.1,219.9,156,221.3,154.1L221.3,154.1z"/>
		</g>
		<path class="st0" d="M241.5,159.5c2,0.9,3.9,0.5,5-0.9c0.5-1.5-0.5-3.5-2.4-4.4c-2-0.9-3.9-0.5-5,0.9
			C238,156.6,239.5,158.6,241.5,159.5z"/>
		<path class="st0" d="M253.8,148.8c-1.5,0-3,1.5-3,3.9c0,2,0.9,3.9,3,3.9c1.5,0,3-1.5,3-3.9C256.3,150.6,255.2,148.8,253.8,148.8z"
			/>
		<path class="st0" d="M149.5,187.1c-0.5-0.5-0.9-0.5-1.5,0c-0.5,0-0.9,0-1.5,0c-0.9,0-2-0.5-2.4-1.5c-0.4-0.9-0.5-2.4,0-4.4
			l0.5-0.9c1.5-3,3.5-7.4,0.9-11.8c-2-3.5-4.4-5.4-7.9-5.9c-3.5-0.5-6.9,0.9-8.9,3.5c-3.5,3.9-3.9,8.9-3.5,10.8
			c0,0.5,0.5,0.9,0.9,0.9c0.5,0,1.5-0.5,2-2v-0.5c0-0.9,0.5-2,1.5-3.5c0.9-1.5,2.4-2.4,3.9-2.4c1.5-0.5,3.5,0,5,0.9
			c2.4,1.5,3.5,4.4,2.4,7.4c-1.5,1.5-2,3.9-2,6.5c0.5,4.4,3.5,6.5,5.9,6.9c2.4,0,4.4-1.5,4.4-2.4
			C149.9,187.6,149.5,187.6,149.5,187.1L149.5,187.1z"/>
		<path class="st0" d="M292.6,178.8c0-0.5-0.5-2.4-1.5-5.4l-2-4.4c3.5-5,3.5-9.8,3-12.2c-0.5-3-2-5.9-4.4-8.9
			c-2.4-3-8.3-5.9-15.7-7.9l-3.9-0.9c0,0,0-9.4-0.5-13.3c0-3-0.5-7.4-2-11.8c-1.5-5.9-4.4-11.3-8.3-14.8c9.8-10.4,16.3-22.2,16.3-32
			c0-18.7-23.1-24.6-52.2-12.8l-5.9,2.4c0,0-10.8-10.8-11.3-10.8C172.1,17.3,70.3,131,102.7,158.6l6.9,5.9c-2,5-2.4,10.4-2,16.3
			c0.9,7.4,5,14.8,10.8,20.7c5.9,5.4,13.7,8.9,21.7,8.9c12.8,29.6,41.8,47.2,75.7,48.3c36.5,0.9,67.4-16.3,80.2-46.8
			c0.9-2,4.4-11.8,4.4-20.7C301.1,182.1,296.1,178.8,292.6,178.8L292.6,178.8z M143.1,201.9c-0.9,0-2.4,0.5-3.5,0
			c-10.8-0.5-23.1-10.4-24.1-22.2c-0.9-12.8,5.4-22.6,17.2-25.2c1.5-0.5,3-0.5,5-0.5c6.5,0.5,16.3,5.4,18.7,19.6
			C158.3,187.1,155.4,199.9,143.1,201.9z M130.8,146.7c-7.4,1.5-13.7,5.4-17.8,11.3c-2.4-2-6.9-5.9-7.4-7.4
			c-6.5-11.8,6.9-35.4,16.3-48.3c22.6-32.4,58.5-57,74.8-52.7c3,0.9,11.8,11.3,11.8,11.3s-16.7,9.4-32,22.2
			C155.8,98.5,140.1,121.6,130.8,146.7z M246.9,196.9l0.5-0.5c0-0.5-0.5-0.5-0.5-0.5s-17.2,2.4-33.5-3.5c2-5.9,6.5-3.9,13.7-3
			c12.8,0.9,24.6-0.9,33-3.5c7.4-2,17.2-6.5,24.6-12.2c2.4,5.4,3.5,11.8,3.5,11.8s2-0.5,3.5,0.5c1.5,0.9,2.4,3,2,7.9
			c-1.5,9.8-5.9,17.2-12.2,24.6c-3.9,4.4-9.4,8.3-15.2,11.3c-3,1.5-6.5,3-9.8,3.9c-26.6,8.3-53.1-0.5-61.5-20.7
			c-0.5-1.5-1.5-3-1.5-5c-3.5-13.3-0.5-29.1,9.4-38.9l0,0c0.5-0.5,0.9-1.5,0.9-2.4s-0.5-1.5-0.9-2c-3.5-5-15.2-13.3-12.8-29.6
			c1.5-11.8,11.8-19.6,21.1-19.2h2.4c3.9,0,7.9,0.9,10.8,0.9c5.4,0,10.8-0.5,16.7-5.4c2-1.5,3.5-3,6.5-3.5c0.5,0,0.9-0.5,2.4,0
			c1.5,0,3,0.5,3.9,1.5c5,3.5,5.4,10.8,5.9,16.7c0,3.5,0.5,11.3,0.5,13.3c0.5,5,1.5,5.9,4.4,6.9c1.5,0.5,3,0.9,5,1.5
			c6.5,2,10.4,3.5,12.8,5.9c1.5,1.5,2,3,2.4,4.4c0.9,5.4-4.4,12.2-17.8,18.7c-14.8,6.9-32,8.3-44.3,6.9l-4.4-0.5
			c-9.8-1.5-15.2,11.3-9.4,19.6c3.9,5.4,14.3,9.4,24.1,9.4c23.7,0,41.8-9.8,48.3-18.7l0.5-0.9c0.5-0.5,0-0.9-0.5-0.5
			c-5.4,3.9-30,18.7-56.1,14.3c0,0-3-0.5-5.9-1.5c-2.4-0.9-6.9-3-7.9-7.9C233.6,203.4,246.9,196.9,246.9,196.9L246.9,196.9z
			 M213.4,193L213.4,193L213.4,193L213.4,193L213.4,193z M173.1,102.5c7.9-9.4,18.2-17.8,27-22.2c0.5,0,0.5,0,0.5,0.5
			c-0.5,1.5-2,3.9-2.4,5.9c0,0.5,0.5,0.5,0.5,0.5c5.4-3.9,15.2-7.9,23.7-8.3c0.5,0,0.5,0.5,0.5,0.5c-1.5,0.9-2.4,2.4-3.9,3.9
			c0,0,0,0.5,0.5,0.5c5.9,0,14.3,2,19.6,5.4c0.5,0,0,0.9-0.5,0.9c-8.3-2-21.7-3.5-35.9,0c-12.8,3-22.2,7.9-29.1,12.8
			C173.1,102.9,172.7,102.9,173.1,102.5L173.1,102.5z"/>
	</g>
	<g>
		<path class="st0" d="M877.4,124.5c-12.2,0-17.8,8.9-20.2,14.3c-1.5,3.5-1.5,4.4-2.4,4.4c-1.5,0-0.5-3,0.5-5.9
			c1.5-6.5,0.5-11.3,0.5-11.3h-17.2v82.7h23.7v-26.1c3,5,7.9,9.8,15.7,9.8c17.2,0,25.6-14.3,25.6-33.9
			C903.4,136.4,893.1,124.5,877.4,124.5L877.4,124.5L877.4,124.5z M871,176.7c-5.4,0-9.4-6.9-9.4-16.3s3.9-16.3,9.4-16.3
			c6.5,0,9.4,5.9,9.4,16.3C880.3,171.4,877.9,176.7,871,176.7L871,176.7z"/>
		<path class="st0" d="M409.4,124.5c-10.4,0-15.2,8.3-17.8,13.3c-1.5,3-1.5,5.4-3,5.4s-0.5-2-1.5-6.5c-1.5-5.9-6.5-12.2-16.7-12.2
			c-10.8,0-15.7,9.4-17.8,14.3c-1.5,3.5-1.5,4.4-2.4,4.4c-1.5,0-0.5-3,0.5-5.9c1.5-6.5,0.5-11.3,0.5-11.3h-17.2v65h23.1v-32.4
			c0-6.5,2.4-14.3,7.4-14.3c5.4,0,6.5,3.9,6.5,11.3V191h23.7v-32.4c0-5.9,2.4-14.3,7.4-14.3c5.4,0,6.5,5.9,6.5,11.3v35h22.6v-38.3
			C431,135.4,425.1,124.5,409.4,124.5L409.4,124.5z M809,124.5c-10.4,0-15.2,8.3-17.8,13.3c-1.5,3-1.5,5.4-3,5.4
			c-1.5,0-0.5-2.4-1.5-6.5c-2-5.9-5.9-12.2-16.7-12.2c-10.8,0-15.7,9.4-17.8,14.3c-1.5,3.5-1.5,4.4-2.4,4.4c-1.5,0-0.5-3,0.5-5.9
			c1.5-6.5,0.5-11.3,0.5-11.3h-17.2v65h23.7v-32.4c0-6.5,2.4-14.3,7.4-14.3c5.4,0,6.5,3.9,6.5,11.3V191H795v-32.4
			c0-5.9,2.4-14.3,7.4-14.3c5.4,0,6.5,5.9,6.5,11.3v35H832v-38.3C830.7,135.4,824.8,124.5,809,124.5L809,124.5z M471.4,124.5
			c-18.2,0-31.1,6.5-31.1,6.5v19.6c0,0,14.3-8.3,26.1-8.3c9.4,0,10.4,5,9.8,9.4c0,0-2.4-0.5-10.8-0.5c-19.2,0-29.1,8.9-29.1,22.6
			c0,13.3,10.8,18.7,20.2,18.7c13.3,0,19.2-8.9,21.1-13.3c1.5-3,1.5-5,2.4-5c1.5,0,0.9,1.5,0.9,4.4c0,5,0,8.9,0.9,12.2h17.9v-32
			C499.4,138.8,492.5,124.5,471.4,124.5L471.4,124.5z M465.5,175.8c-5.4,1.5-8.3-0.5-8.3-3.9c0-5,5.4-7.4,12.8-7.4
			c3.5,0,6.5,0.5,6.5,0.5C476.2,166.9,471.4,174.3,465.5,175.8z M538.3,106.4h23.7V191h-23.7C538.3,190.6,538.3,106.4,538.3,106.4z
			 M588,158.6c0-5.9,5.4-11.3,15.2-11.3c10.8,0,19.6,5.4,21.7,6.5V131c0,0-6.9-6.5-23.7-6.5c-17.8,0-32.4,10.4-32.4,33
			s13.3,35,32.4,35c14.8,0,24.1-8.3,24.1-8.3v-21.7c-3,1.5-10.8,6.9-21.7,6.9C591.9,169.9,588,164.5,588,158.6L588,158.6z
			 M672.6,124.5c-13.7,0-18.7,12.8-19.6,15.2c-0.9,2.4-1.5,3.5-2.4,3.5c-1.5,0-0.5-3,0-4.4c0.9-3.5,3.5-11.8,3.5-22.6
			c0-7.4-0.9-9.8-0.9-9.8h-20.2V191h23.7v-32.4c0-5.4,2-14.3,7.9-14.3c5,0,6.5,3.5,6.5,10.8V191h23.7v-34.4
			C693.7,139.9,691.3,124.5,672.6,124.5L672.6,124.5z M701.7,126v65h23.7v-65c0,0-3.9,2.4-11.8,2.4C705.6,128,701.7,126,701.7,126
			L701.7,126z"/>
		<ellipse class="st0" cx="713.5" cy="114.7" rx="14.3" ry="9.4"/>
		<path class="st0" d="M507.3,126v65h23.5v-65c0,0-3.9,2.4-11.8,2.4C519,128,507.3,126,507.3,126z"/>
		<ellipse class="st0" cx="519" cy="114.7" rx="14.3" ry="9.4"/>
	</g>
</g>
</svg>
