<?xml version="1.0" encoding="utf-8"?>
<!-- Generator: Adobe Illustrator 24.1.0, SVG Export Plug-In . SVG Version: 6.00 Build 0)  -->
<svg version="1.1" id="Layer_1" xmlns="http://www.w3.org/2000/svg" xmlns:xlink="http://www.w3.org/1999/xlink" x="0px" y="0px"
	 viewBox="0 0 1000 300" style="enable-background:new 0 0 1000 300;" xml:space="preserve">
<style type="text/css">
	.st0{fill-rule:evenodd;clip-rule:evenodd;fill:#212121;}
</style>
<path class="st0" d="M226,94.1l-63-37.2c-5.5-3.2-14.5-3.2-20,0L80,94.1c-5.5,3.2-10,11.2-10,17.7v74.4c0,6.5,4.5,14.5,10,17.7
	l63,37.2c5.5,3.2,14.5,3.2,20,0l63-37.2c5.5-3.3,10-11.2,10-17.7v-74.3C236,105.3,231.5,97.4,226,94.1z M206.9,134.2L206.9,134.2
	l-6.5,0V123c0-8.6-6.5-11.3-19-11.3h-0.6c-29.9,0-27.3-11.5-28.1-15.7h-0.4c-0.9,4.2,2,15.7-27.9,15.7h-0.8c-12.5,0-19,2.7-19,11.3
	v8.7l102.2,30.3v1.7h0v10.8c0,12.4-5.8,19.2-25.4,19.2h-1c-15.3,0-24.7,3.3-24.7,15.7h-6.5c0-12.4-9.4-15.7-24.7-15.7h-1
	c-19.6,0-25.4-6.8-25.4-19.2v-10.8h6.5v11.3c0,8.6,6.5,11.3,19,11.3h0.6c29.9,0,27.3,11.5,28.1,15.7h0.4c0.9-4.2-2-15.7,27.9-15.7
	h0.8c12.5,0,19-2.7,19-11.3v-6.5L98.3,138.1v-3.9h0v-10.8c0-12.4,5.8-19.2,25.4-19.2h1c15.3,0,24.7-3.3,24.7-15.7h6.5
	c0,12.4,9.4,15.7,24.7,15.7h1c19.6,0,25.4,6.8,25.4,19.2V134.2z"/>
<path class="st0" d="M313.1,129.4c0-8.9,9.7-12.8,17.5-12.8c7.7,0,16.1,2.3,16.3,11.4h7.3c-1.7-14.1-14.5-17.5-24.4-17.5
	c-11.8,0-23.9,7-23.9,19.8c0,15.9,18.5,19.6,30.6,23.6c6.3,2,11.7,5.5,11.7,12.8c0,9.4-9.7,14.1-18.1,14.1
	c-10.1,0-18.6-3.3-18.8-14.6h-7.3c0.3,12.1,10.4,20.7,22.3,20.7c15.1,0,29.1-4.9,29.1-20.9C355.5,140.8,313.1,150.3,313.1,129.4z
	 M445.2,176.6H445L403.7,112H396v73.5h6.7V122h0.2l40.5,63.5h8.5V112h-6.8L445.2,176.6L445.2,176.6L445.2,176.6z M497.4,185.5h6.8
	v-73.8h-6.8V185.5L497.4,185.5z M569.3,112h-18.8v73.5h6.8v-31.9h12c14.4,0.3,30.7-3.3,30.7-20.8S583.8,111.7,569.3,112L569.3,112z
	 M573.7,147.4h-16.4v-29.3h16.4c10.1,0,19,3.2,19,14.7C592.7,144.3,583.8,147.4,573.7,147.4L573.7,147.4z M660.9,180.9
	c-19.2,0-25-17.1-25-32.2s5.8-32.1,25-32.1c8.5,0,16.4,3.7,17.7,12.6h7.3c-1-13.2-12.7-18.7-24.9-18.7c-22.6,0-32.3,18.1-32.3,38.3
	c0,20.4,9.6,38.3,32.3,38.3c12.1,0,23.6-7,25.8-19.3h-7.3C677.5,176.8,669.2,180.9,660.9,180.9z M736.7,112L707,185.5h7l7.9-19.8
	h37.3l8,19.8h7.4L744.6,112L736.7,112L736.7,112z M724.1,159.5l16.5-41.4l16.2,41.4L724.1,159.5L724.1,159.5z M835,147.2V147
	c8.7-2.1,14.4-7.8,14.4-15.8c0-7-2.5-12.3-7.7-15.4c-5.7-3.5-11.1-3.9-17.7-3.9h-24.5v73.5h6.7v-35h18.6c13.6,0,14.7,2.9,16.2,19.7
	c0.4,5.2,0.8,10.4,2.6,15.3h7.8c-3-4.5-2.6-10-3.9-21.9C846.6,155.1,844.6,148.7,835,147.2L835,147.2z M820.8,144.4h-14.4v-26.3
	h15.2c7.2,0,20.7-1,20.7,13.1C842.2,143.8,830.3,144.4,820.8,144.4L820.8,144.4z M874.2,112v6.1h24.2l0.1,67.4h6.6l0.1-67.4H929V112
	L874.2,112L874.2,112z"/>
</svg>
