<?xml version="1.0" encoding="utf-8"?>
<!-- Generator: Adobe Illustrator 23.0.4, SVG Export Plug-In . SVG Version: 6.00 Build 0)  -->
<svg version="1.1" id="Livello_1" xmlns="http://www.w3.org/2000/svg" xmlns:xlink="http://www.w3.org/1999/xlink" x="0px" y="0px"
	 viewBox="0 0 1000 500" style="enable-background:new 0 0 1000 500;" xml:space="preserve">
<style type="text/css">
	.st0{fill:#3C3C3B;}
</style>
<title>UDESLY LOGO BLACK</title>
<path class="st0" d="M406.5,250c3.7,0,5.6,4.8,5.6,14.4c0,5.2-2.2,11.6-6.6,19c-4.6,7.7-10.3,14.5-17.1,20.3
	c-7,6.2-14.8,11.3-23.3,15.1c-7.8,3.8-16.4,5.8-25.1,5.9c-11.5,0-19-9.3-22.5-28.1c-12.5,19.9-31.1,29.8-55.7,29.8
	c-15,0-27-4.6-36-13.8s-13.4-20.3-13.2-33.5c0-35.5,11.8-63.4,35.4-83.8c16.3-13.9,33.1-20.9,50.7-20.9c8,0,14.1,0.6,18.8,1.9
	l7.2,1.9c8.5-40.3,18.5-67.1,29.7-80.7c3.7-4.6,7.5-6.9,11.3-6.9c6.1,0,11.7,4.1,16.9,12.5c4.6,6.9,6.9,12.8,6.9,17.8
	c0,5-0.7,10-2.2,14.7c-1.4,4.6-3.2,9-5.5,13.3c-2.2,4.1-4.7,8.1-7.4,11.9c-2.8,3.8-5.4,7.8-8.1,11.7c-6.1,22.5-10.5,47.8-13.5,75.8
	c-0.7,6.3-1.2,12.7-1.3,19.1c0,14.4,2.4,21.6,7.2,21.6c5.4,0,18.5-10.8,39.4-32.5C402.2,252.1,404.8,250,406.5,250z M258.9,268.8
	c0,16.1,5.9,24.1,17.8,24.1c7.1,0,14.2-2.8,21.4-8.2s12.8-14.5,16.7-27.2c0.6-20.8,2.8-41.5,6.6-61.9c-16.7,3.3-31.2,11.5-43.8,24.4
	S258.8,249.2,258.9,268.8z"/>
<path class="st0" d="M469.4,289.7c16.3,0,32.1-6.5,47.3-19.4c4.9-4.1,9.5-8.5,13.8-13.3c3.5-4,6.3-6.1,8.2-6.1c3,0,4.4,3,4.4,8.8
	s-1.6,12.4-4.7,19.6s-8.3,14.2-15.6,21.1c-18,16.9-42.6,25.4-73.8,25.4c-24.9,0-41.8-9-50.7-26.9c-3.1-6.3-4.7-15.2-4.7-26.9
	c0.1-12.5,2.4-24.8,6.9-36.5c4.1-11.9,10.3-23,18.3-32.7c7.3-8.8,16.3-16.1,26.4-21.4c9.9-5.1,20.9-7.7,32-7.7
	c11.4,0,20.1,2.9,26.3,8.4s9.2,13,9.2,21.9s-2.3,16.3-6.7,22c-4.7,5.9-10.7,10.8-17.4,14.4c-7.5,4.1-15.4,7.5-23.5,10.3
	c-8.6,3-17.2,6.4-25.5,10.2v7.9c0.2,7.5,3.3,12.9,9.3,15.9C455.2,287.9,462.2,289.6,469.4,289.7z M464.1,201.5
	c-10.8,0-18.4,12.6-22.5,37.8c4.4-2.9,8.5-5.5,12.4-7.9s7.3-4.5,10.2-6.6c6.3-4.6,9.5-9.8,9.7-15.6
	C473.8,204,470.6,201.4,464.1,201.5L464.1,201.5z"/>
<path class="st0" d="M598.6,172.2c14-0.1,24.4,2.6,31.2,7.9s10.3,13,10.3,22.8s-3,18.4-8.9,25.4c-5.7,6.9-13.2,12-21.7,14.8
	c5.9,6,11.3,12.4,16.4,19.1c4.9,6.5,7.4,13.3,7.4,20.3c0,14-5.5,24.8-16.6,32.3s-26.4,11.4-46.2,11.4s-34.5-3.9-44.3-11.7
	s-14.7-16.7-14.7-26.6c-0.1-9.6,2.5-18.9,7.4-27.1c4.9-8.1,10.1-12.2,15.8-12.2c3.3,0,5.7,1.2,7.2,3.6s4.1,9.4,8.2,20.9
	c1.6,4.4,4,8.4,7.2,11.9c7.7,8.5,20,12.8,36.7,12.8c-2.4-7.7-6.5-14.7-12.1-20.5c-5.5-5.7-11-11.3-16.4-16.7
	c-5.3-5.3-10.1-11.2-14.3-17.4c-4.2-6.4-6.4-14-6.3-21.7c0-15,5.6-27.2,16.9-36.6C572.2,176.5,585.3,172.2,598.6,172.2z
	 M597.4,230.2c8.3-8.9,12.5-16.2,12.5-21.6c0-2.5-1-4.9-2.7-6.7c-1.8-2-4.3-2.9-7.7-2.9c-3.2,0-6.4,0.4-9.5,1.3
	c-3,0.8-5.5,1.5-7.4,1.9C582.7,210,587.6,219.4,597.4,230.2z"/>
<path class="st0" d="M722.5,324.8c-29.9,0.2-50.1-10.9-61-33.5c-3.7-8-5.6-17.9-5.6-29.9c0.1-12.8,1.1-25.7,3.2-38.3
	c3.8-26.2,12-51.5,24-75.1c5.5-10.9,12.3-21,20.3-30.1c16.5-18.4,34.8-27.4,55-27.2c9,0,16,2.4,21.1,7.4s7.7,12,7.7,21.1
	s-2.8,18.4-8.2,27.7c-6.1,10.2-13,19.8-20.8,28.8c-8.5,9.9-17.8,20.2-28,31.2c-10.6,11.3-20.7,23.1-30.1,35.4v12.5
	c0,11.7,2.5,20.2,7.5,25.7s10.9,8.1,17.6,8.1c18,0,33.9-8.8,47.6-26.5c5.6-7.3,9.9-10.9,12.8-10.9s4.3,3.5,4.4,10.6
	c0.1,7.1-2,14.3-5.8,21.7c-8.2,15.4-21,27.8-36.8,35.5C739.8,322.7,731.2,324.8,722.5,324.8z M739.5,156.8
	c3.8-4.6,7.3-9.6,10.3-14.8c2.4-4.1,3.7-8.8,3.7-13.6c0-4.7-1.7-7.1-5-7.1c-7.3,0-15.4,7.6-24.3,22.5s-15.5,34.7-19.9,59.1
	c6.1-9.4,12.6-18.5,19.6-27.2C729.9,168.5,735.1,162.1,739.5,156.8L739.5,156.8z"/>
<path class="st0" d="M855.9,301c-10.4,14.4-24.4,21.6-42,21.6c-14.2,0-25.5-3-33.9-9s-12.7-15.4-12.7-28.3c-0.1-5.1,0.7-10.2,2.4-15
	c2.2-5.8,4.7-11.5,7.7-16.9l9-74.2c6.5-5,15.2-7.5,26.3-7.5c9.4,0,14.7,6.3,15.9,18.8c0.5,4.4,0.7,8.8,0.6,13.3
	c-0.1,5.5-0.9,10.9-2.5,16.1c-8.4,28.8-12.4,48.1-12.2,57.9c0,7.6,4.4,11.3,13.2,11.3s15.2-2.9,19.4-8.5c4.6-6.4,8.2-13.4,10.6-20.9
	c5.4-23.2,10.5-42.3,15.1-57.3s7.7-24,8.9-26.9c2.1-5,6.1-7.7,11.9-7.9c5.8,0.2,11.4,4.3,16.6,12.4s7.9,14.2,7.9,18.7
	c-0.5,14.5-9.6,51.3-27.3,110.4c14.7-11.7,28.3-24.8,40.5-39.1c4.6-5.4,8.5-9.9,11.6-13.7s5.6-5.5,7.5-5.5c2.9,0,4.4,3.3,4.4,10
	c0,13.2-7.3,28.5-22,46c-14.7,17.5-33.2,31.5-54,41c-2.5,8.4-5.2,16.2-8.2,23.8c-2.7,7.1-6.5,13.8-11.3,19.8
	c-10,12.1-25.2,18.2-45.7,18.2c-13.8,0-25.5-3.9-35.2-11.9s-14.5-17.8-14.5-29.8c0-6.7,2.3-12,6.7-15.9s10.6-7.3,18.5-9.8
	c9-2.9,18.1-5.2,27.4-6.9c10.4-2,21.6-4.4,33.5-7.4C852.9,315.4,854.8,306.4,855.9,301z M813.3,385.5c9.8,0,18.7-8.5,26.6-25.6
	c-7.5,1.5-14.2,2.6-20,3.3s-10.8,1.4-15,2c-8.3,1.3-12.4,3.4-12.2,6.6c0,3.9,2.4,7.3,7.1,10C804,384.2,808.7,385.5,813.3,385.5
	L813.3,385.5z"/>
<path class="st0" d="M225,263c0,4-0.6,8-1.7,11.9l-0.1,0.2l-1,3l-0.1,0.2l0,0c-2.2,4.9-4.8,9.6-7.8,14l-0.1,0.2
	c-16.2,24-38.2,29.9-50.2,31.2l0,0c-2.3,0.3-4.3,0.4-5.9,0.5H158l-0.1-0.1h-1.3l-1.1-0.1h-0.2l-0.5-0.1h-0.5c-1.7-0.2-3.4-0.6-5-1.2
	c-1.4-0.5-2.8-1.2-4-2.2l0,0c-1.5-1.1-2.7-2.4-3.6-4c-2.5-4-4.2-8.5-5-13.2c-0.4-1.8-0.7-3.7-0.9-5.6v-0.3l0,0v-0.1l-0.1,0.1l0,0
	c-0.6,1-1.1,2-1.7,3c-0.5,0.8-1,1.6-1.6,2.4v0.1c-0.6,0.9-1.2,1.7-1.8,2.5v0.1c-0.4,0.4-0.7,0.8-1,1.3c-1,1.3-2.1,2.4-3.2,3.5
	l-1.3,1.1c-0.4,0.4-0.8,0.8-1.2,1.1c-0.8,0.8-1.6,1.5-2.5,2.2c-0.9,0.7-1.7,1.4-2.6,2.1c-6.9,5.3-15.4,8.2-24.2,8h-1
	c-15.4-0.1-27.4-3.1-35.8-9c-8.5-6-12.9-15-12.9-26.9c0-3.1,0.3-6.3,0.9-9.3l0,0l0.3-1.5c0.1-0.3,0.2-0.7,0.3-1
	c11.7-32.4,15-66,15.9-87.6l0,0l0.3-1.8c0.5-2.9,2.3-5.5,4.9-6.9c5.9-3.1,13.5-4.6,22.8-4.6s14.6,6.1,15.7,18.2
	c1,9.9,0.6,18.8-1.4,26.5s-4.4,17.6-7.6,29.4s-4.8,22.2-4.8,31.3c0,6.9,4,10.5,12.1,10.9h1.6c9.9,0,18.5-8.6,25.7-26
	c5.9-14.2,9.7-29.2,11.5-44.5l-0.1-0.6l0,0c-0.2-1.6-0.3-3.4-0.4-5.6c-0.1-2.6-0.2-5-0.3-7.5s-0.2-4.8-0.2-7.3v-5.5
	c0-13.6,10.5-20.3,31.6-20.3c5.2,0,8.6,1.8,9.8,5.2s2,8.6,2,15.7c0,9.9-2.3,25.3-6.7,46.1c-1.8,8.2-3.1,15.2-4.1,21.3l0,0
	c-0.1,0.9-0.3,1.8-0.4,2.5l0,0c-1.3,8.2-1.9,14.1-1.8,18.2c0,3.4,1.1,5.1,3.3,5.1c3.1,0,6.8-2,11.2-5.8l0.6-0.5l0.7-0.7
	c4-3.5,8.1-7.4,12.1-11.4c4.4-4.5,8.6-8.7,12.3-12.6s6.3-5.8,7.8-5.8C223.6,252.6,225,256.1,225,263z"/>
<path class="st0" d="M126.8,324.3l-1.4-0.1h1.3L126.8,324.3z"/>
</svg>
