<svg xmlns="http://www.w3.org/2000/svg" viewBox="0 0 1000 300"><defs><style>.a{fill:#212121;}</style></defs><title>webflowblack</title><path class="a" d="M352,126.05c0-15-14.58-30.91-39.81-30.91-28.33,0-59.45,20.78-64.21,62.24-4.85,41.87,21.2,60.48,47.46,60.48s40-10.23,54.07-23.88c-12.09-15.2-27.7-8.17-30.7-6.62a31.38,31.38,0,0,1-16.23,3.93c-10.14,0-20.48-4.55-20.48-23.47C347,161.41,352,141,352,126.05Zm-32.16,2.48c-.41,4.66-2.27,12.62-35.15,17.06,6.93-24.6,20.16-26.46,26.26-26.46A8.58,8.58,0,0,1,319.84,128.53Zm-110,4s-14,43.83-15.09,47.45c-.41-3.72-10.65-82.4-10.65-82.4-23.78,0-36.5,17-43.22,34.84,0,0-17,43.94-18.4,47.67-.1-3.42-2.59-47.15-2.59-47.15-1.44-21.92-21.5-35.26-37.73-35.26l19.64,119.21c24.92-.1,38.36-17,45.39-34.84,0,0,15-38.77,15.61-40.53.1,1.66,10.75,75.37,10.75,75.37,25,0,38.46-15.82,45.7-33.08l35-86.13C229.58,97.72,216.55,114.58,209.83,132.57ZM443.5,94.93c-15.4,0-27.19,8.38-37.12,20.68v-.1l8.9-71.65c-20.48,0-37.12,17.78-40.33,44.25L359.44,216c11.79,0,24.3-3.41,31-12.09,6,7.75,15,14,28.33,14,34.53,0,58.21-40.11,58.21-77.75C476.79,105.79,460.15,94.93,443.5,94.93Zm-2.9,61.52c-3.62,21-15.3,35.26-26.57,35.26s-16.23-5.07-16.23-5.07c2.17-18.4,3.51-29.67,7.65-39.39s14-25.23,24.19-25.23C439.67,122,444.22,135.36,440.6,156.45ZM564,97.82H539.58l.1-1.26c1.68-15.92,5.45-24.3,17.91-25.66,8.48-.83,12.25-5.23,13.19-10.05.73-3.77,3-16.86,3-16.86-49-.31-64.4,20.84-68.38,53.09l-.11.74h-.52c-8,0-16.75,9-18.22,20.41l-.52,4.19H502.4l-13.72,113.3L484.5,256c.52,0,1.15.1,1.67.1,22.93-.84,37.59-18.95,40.84-45.23l10.68-88.49h7.64c7.54,0,16.34-7.54,17.91-20.1Zm124.87-2.16c-27.81,0-54.07,20.47-62.13,52.62s4.13,70.2,45.07,70.2,64.42-39.59,64.42-72.58C736.2,113.13,714,95.66,688.84,95.66Zm11.27,59.76c-1.44,14.57-7.85,36.7-25.43,36.7s-15.2-25.85-13.44-38.15c1.86-13.13,9.2-31.85,25-31.85C700.42,122.12,701.77,139,700.11,155.42ZM873.6,132.57s-14,43.83-15.09,47.45c-.42-3.72-10.65-82.4-10.65-82.4-23.78,0-36.5,17-43.22,34.84l-18.4,47.67c-.11-3.42-2.59-47.15-2.59-47.15-1.44-21.92-21.5-35.26-37.74-35.26l19.55,119.21c24.91-.1,38.35-17,45.38-34.84,0,0,15-38.77,15.51-40.53.21,1.66,10.76,75.37,10.76,75.37,25,0,38.46-15.82,45.69-33.08l35.05-86.13C893.25,97.72,880.22,114.58,873.6,132.57Zm-287.32-88L566,208h0l-4.13,20.16c.52,0,1.14.11,1.65.11h0c21.82-.31,37.33-19.44,40.22-43.53L615.44,91C619,62.36,601.89,44.58,586.28,44.58Z"/></svg>