<?xml version="1.0" encoding="utf-8"?>
<!-- Generator: Adobe Illustrator 24.1.0, SVG Export Plug-In . SVG Version: 6.00 Build 0)  -->
<svg version="1.1" id="Layer_1" xmlns="http://www.w3.org/2000/svg" xmlns:xlink="http://www.w3.org/1999/xlink" x="0px" y="0px"
	 viewBox="0 0 1000 300" style="enable-background:new 0 0 1000 300;" xml:space="preserve">
<style type="text/css">
	.st0{fill:#212121;}
</style>
<path class="st0" d="M555.6,133.3h-13.9c-0.3-1.1-0.5-2.4-0.6-3.9c-0.3-2.9-0.3-5.8,0-8.7c0.1-1.5,0.4-2.8,0.6-3.9h34.5V226
	c-1.7,0.3-3.5,0.5-5.2,0.6s-3.5,0.2-5.2,0.2s-3.3-0.1-5-0.2c-1.7-0.1-3.5-0.3-5.2-0.6L555.6,133.3L555.6,133.3L555.6,133.3z
	 M675.8,160.8c0-4-0.5-7.8-1.6-11.4c-1.1-3.6-2.6-6.8-4.7-9.5c-2.1-2.7-4.7-4.9-7.9-6.5s-7-2.5-11.4-2.5c-8.7,0-15.3,2.6-19.9,7.9
	c-4.6,5.3-7.4,12.6-8.4,21.9h53.9V160.8z M621.7,176.5c0.3,11.9,3.4,20.7,9.3,26.2c5.9,5.5,14.6,8.3,26.1,8.3
	c10.1,0,19.7-1.8,28.8-5.3c1.1,2.1,2.1,4.7,2.8,7.8c0.7,3,1.1,6,1.3,9.1c-4.7,2-9.8,3.5-15.4,4.5c-5.6,1-11.8,1.5-18.6,1.5
	c-9.9,0-18.5-1.4-25.6-4.2s-13-6.7-17.6-11.7s-8-11-10.1-17.9s-3.2-14.5-3.2-22.7c0-8.1,1-15.7,3.1-22.7s5.2-13.1,9.5-18.3
	s9.6-9.3,16.1-12.4s14.1-4.6,22.9-4.6c7.5,0,14.1,1.3,19.8,3.8c5.7,2.6,10.4,6.1,14.3,10.5c3.8,4.5,6.7,9.8,8.7,16s3,12.9,3,20.1
	c0,2-0.1,4.1-0.2,6.3c-0.1,1.9-0.3,3.8-0.4,5.6L621.7,176.5L621.7,176.5L621.7,176.5z M719.9,116.7c1.5-0.3,3-0.5,4.5-0.6
	c1.4-0.1,2.9-0.2,4.5-0.2s3.1,0.1,4.7,0.2c1.6,0.1,3,0.4,4.3,0.6c0.4,2.1,0.8,4.9,1.3,8.4c0.4,3.5,0.6,6.4,0.6,8.8
	c3-4.8,6.9-9,11.8-12.6c4.9-3.5,11.2-5.3,18.9-5.3c1.1,0,2.3,0,3.5,0.1c1,0.1,2.1,0.2,3.1,0.3c0.3,1.3,0.5,2.6,0.6,4.1
	c0.1,1.4,0.2,2.9,0.2,4.5c0,1.7-0.1,3.5-0.3,5.3c-0.2,1.8-0.5,3.6-0.7,5.3c-1.2-0.3-2.3-0.4-3.5-0.4h-2.9c-3.8,0-7.5,0.5-11,1.6
	s-6.6,2.9-9.4,5.6c-2.8,2.7-5,6.4-6.6,11.1c-1.6,4.7-2.5,10.7-2.5,18.1V226c-1.7,0.3-3.5,0.5-5.2,0.6c-1.9,0.1-3.7,0.2-5.2,0.2
	c-1.7,0-3.5-0.1-5.2-0.2c-1.8-0.1-3.6-0.3-5.4-0.6L719.9,116.7L719.9,116.7z M570.4,58.3c0,2.6-0.5,5.1-1.4,7.5
	c-2.4,0.9-4.9,1.4-7.5,1.4l0,0c-2.6,0-5.1-0.5-7.5-1.4c-0.9-2.4-1.4-4.9-1.4-7.5l0,0c0-2.6,0.5-5.1,1.4-7.5c2.4-0.9,4.9-1.4,7.5-1.4
	l0,0c2.6,0,5.1,0.5,7.5,1.4C569.9,53.2,570.4,55.7,570.4,58.3L570.4,58.3L570.4,58.3L570.4,58.3z M596.4,52.4h-20.6l14.6-14.6
	c-2.3-3.2-5.1-6-8.3-8.3L567.4,44V23.4c-1.9-0.3-3.9-0.5-5.9-0.5l0,0c-2,0-4,0.2-5.9,0.5V44L541,29.4c-1.6,1.1-3.1,2.4-4.5,3.8l0,0
	c-1.4,1.4-2.7,2.9-3.8,4.5l14.6,14.6h-20.7c0,0-0.5,3.9-0.5,5.9l0,0c0,2,0.2,4,0.5,5.9h20.7l-14.6,14.6c2.3,3.2,5.1,6,8.3,8.3
	l14.6-14.6V93c1.9,0.3,3.9,0.5,5.9,0.5h0.1c2,0,3.9-0.2,5.9-0.5V72.5L582,87.1c1.6-1.1,3.1-2.4,4.5-3.8l0,0c1.4-1.4,2.7-2.9,3.8-4.5
	l-14.6-14.6h20.7c0.3-1.9,0.5-3.9,0.5-5.9v-0.1C596.9,56.3,596.7,54.3,596.4,52.4L596.4,52.4L596.4,52.4z M222.1,223l57.5-89.5
	h-50.7c-0.4-2.6-0.6-5.4-0.6-8.5c0-3,0.2-5.8,0.6-8.3h82l1.1,2.8l-58,89.7h54.3c0.4,2.8,0.6,5.8,0.6,8.7c0,2.8-0.2,5.5-0.6,8.1
	h-85.2L222.1,223L222.1,223z M388.1,174.6c-2.1-0.3-4.8-0.6-8.1-0.9c-3.3-0.3-6-0.4-8.3-0.4c-8.8,0-15.5,1.6-20.1,4.9
	c-4.6,3.3-6.9,8.2-6.9,14.9c0,4.3,0.8,7.6,2.3,10c1.6,2.4,3.5,4.3,5.9,5.5c2.3,1.3,4.9,2.1,7.8,2.3c2.8,0.3,5.5,0.4,8.1,0.4
	c3.3,0,6.6-0.2,10.1-0.5c3.5-0.4,6.6-0.9,9.3-1.6L388.1,174.6L388.1,174.6z M388.1,153.9c0-8.4-2.1-14.2-6.4-17.5
	s-10.4-4.9-18.5-4.9c-5,0-9.6,0.4-14,1.2c-4.3,0.8-8.5,1.8-12.7,3.1c-2.7-4.7-4-10.3-4-16.8c4.8-1.6,10.2-2.8,16-3.6
	c5.8-0.9,11.4-1.3,16.8-1.3c14.2,0,25,3.2,32.4,9.7c7.4,6.5,11.1,16.8,11.1,31v68.4c-5,1.1-11,2.3-18.1,3.5
	c-7.2,1.2-14.5,1.8-21.7,1.8c-7,0-13.2-0.6-18.9-1.9c-5.6-1.3-10.4-3.3-14.3-6.2c-3.9-2.8-6.9-6.5-9.1-10.9c-2.1-4.4-3.2-9.7-3.2-16
	c0-6.1,1.2-11.5,3.7-16.1c2.4-4.6,5.9-8.5,10.1-11.5c4.3-3,9.2-5.3,14.7-6.8s11.4-2.2,17.5-2.2c4.5,0,8.3,0.1,11.2,0.3
	c2.9,0.2,5.4,0.5,7.4,0.7V153.9L388.1,153.9z M452.9,208.1c2.7,1,5.5,1.7,8.3,2.1c2.8,0.4,6.5,0.6,11.1,0.6c5.1,0,9.8-0.8,14.1-2.4
	c4.3-1.6,7.9-4.2,11-7.6c3.1-3.4,5.5-7.7,7.2-12.9c1.8-5.2,2.7-11.3,2.7-18.4c0-11.4-2.1-20.4-6.3-27.1c-4.2-6.7-11-10-20.6-10
	c-3.6,0-7,0.6-10.2,1.9c-3.3,1.3-6.2,3.2-8.7,5.8c-2.6,2.6-4.6,5.8-6.2,9.7s-2.3,8.6-2.3,14L452.9,208.1L452.9,208.1L452.9,208.1z
	 M431.8,116.6c1.4-0.3,2.9-0.5,4.4-0.6s3.1-0.2,4.6-0.2c1.4,0,2.9,0.1,4.5,0.2s3.1,0.4,4.5,0.6c0.1,0.3,0.3,1.2,0.5,2.7
	s0.4,3.1,0.6,4.8c0.2,1.7,0.4,3.3,0.6,4.9c0.2,1.6,0.3,2.6,0.3,3c1.4-2.3,3.1-4.5,5.1-6.6s4.4-4,7.1-5.8c2.8-1.7,5.9-3.1,9.4-4.1
	s7.4-1.5,11.6-1.5c6.4,0,12.3,1.1,17.8,3.2s10.2,5.4,14.1,9.9c3.9,4.5,7,10.2,9.2,17c2.2,6.9,3.3,15,3.3,24.4
	c0,18.8-5.1,33.4-15.2,44c-10.2,10.6-24.5,15.9-43.1,15.9c-3.1,0-6.3-0.2-9.6-0.6c-3.3-0.4-6.1-1-8.5-1.7v50.1
	c-1.8,0.3-3.6,0.5-5.4,0.6c-1.9,0.1-3.7,0.2-5.2,0.2c-1.7,0-3.5-0.1-5.2-0.2s-3.5-0.3-5.2-0.6L431.8,116.6L431.8,116.6z"/>
</svg>
